# Wavefront OBJ file automatically generated by Tiled2Unity

# Vertices (Count = 249)
v -25 -1 0
v -26 -1 0
v -26 0 0
v -25 0 0
v -19 -2 0
v -20 -2 0
v -20 -1 0
v -19 -1 0
v -21 -2 0
v -21 -1 0
v -22 -2 0
v -22 -1 0
v -23 -2 0
v -23 -1 0
v -24 -2 0
v -24 -1 0
v -25 -2 0
v -26 -2 0
v -19 -3 0
v -20 -3 0
v -21 -3 0
v -3 -4 0
v -4 -4 0
v -4 -3 0
v -3 -3 0
v -5 -4 0
v -5 -3 0
v -16 -4 0
v -17 -4 0
v -17 -3 0
v -16 -3 0
v -18 -4 0
v -18 -3 0
v -19 -4 0
v -20 -4 0
v -3 -5 0
v -4 -5 0
v -5 -5 0
v -6 -5 0
v -6 -4 0
v -16 -5 0
v -17 -5 0
v -18 -5 0
v -19 -5 0
v -20 -5 0
v -4 -6 0
v -5 -6 0
v -6 -6 0
v -7 -6 0
v -7 -5 0
v -13 -6 0
v -14 -6 0
v -14 -5 0
v -13 -5 0
v -15 -6 0
v -15 -5 0
v -16 -6 0
v -17 -6 0
v -18 -6 0
v -19 -6 0
v -20 -6 0
v -1 -7 0
v -2 -7 0
v -2 -6 0
v -1 -6 0
v -3 -7 0
v -3 -6 0
v -4 -7 0
v -5 -7 0
v -6 -7 0
v -7 -7 0
v -8 -7 0
v -8 -6 0
v -13 -7 0
v -14 -7 0
v -15 -7 0
v -16 -7 0
v -17 -7 0
v -18 -7 0
v -19 -7 0
v -20 -7 0
v 0 -8 0
v -1 -8 0
v 0 -7 0
v -2 -8 0
v -3 -8 0
v -4 -8 0
v -5 -8 0
v -6 -8 0
v -7 -8 0
v -8 -8 0
v -9 -8 0
v -9 -7 0
v -10 -8 0
v -10 -7 0
v 0 -9 0
v -1 -9 0
v -2 -9 0
v -3 -9 0
v -4 -9 0
v -5 -9 0
v -6 -9 0
v -7 -9 0
v -8 -9 0
v -9 -9 0
v -10 -9 0
v -11 -9 0
v -11 -8 0
v -12 -9 0
v -12 -8 0
v -13 -9 0
v -13 -8 0
v -14 -9 0
v -14 -8 0
v -15 -9 0
v -15 -8 0
v -16 -9 0
v -16 -8 0
v -17 -9 0
v -17 -8 0
v -18 -9 0
v -18 -8 0
v -19 -9 0
v -19 -8 0
v -20 -9 0
v -20 -8 0
v -21 -9 0
v -21 -8 0
v -22 -9 0
v -22 -8 0
v -23 -9 0
v -23 -8 0
v -24 -9 0
v -24 -8 0
v -25 -9 0
v -25 -8 0
v -26 -9 0
v -26 -8 0
v -27 -9 0
v -27 -8 0
v -28 -9 0
v -28 -8 0
v -29 -9 0
v -29 -8 0
v -30 -9 0
v -30 -8 0
v -31 -9 0
v -31 -8 0
v -32 -9 0
v -32 -8 0
v -33 -9 0
v -33 -8 0
v -34 -9 0
v -34 -8 0
v -35 -9 0
v -35 -8 0
v -36 -9 0
v -36 -8 0
v -37 -9 0
v -37 -8 0
v -38 -9 0
v -38 -8 0
v -57 -9 0
v -58 -9 0
v -58 -8 0
v -57 -8 0
v -59 -9 0
v -59 -8 0
v -60 -9 0
v -60 -8 0
v 0 -10 0
v -1 -10 0
v -2 -10 0
v -3 -10 0
v -4 -10 0
v -5 -10 0
v -6 -10 0
v -7 -10 0
v -8 -10 0
v -9 -10 0
v -10 -10 0
v -11 -10 0
v -12 -10 0
v -13 -10 0
v -14 -10 0
v -15 -10 0
v -16 -10 0
v -17 -10 0
v -18 -10 0
v -19 -10 0
v -20 -10 0
v -21 -10 0
v -22 -10 0
v -23 -10 0
v -24 -10 0
v -25 -10 0
v -26 -10 0
v -27 -10 0
v -28 -10 0
v -29 -10 0
v -30 -10 0
v -31 -10 0
v -32 -10 0
v -33 -10 0
v -34 -10 0
v -35 -10 0
v -36 -10 0
v -37 -10 0
v -38 -10 0
v -39 -10 0
v -39 -9 0
v -40 -10 0
v -40 -9 0
v -41 -10 0
v -41 -9 0
v -42 -10 0
v -42 -9 0
v -43 -10 0
v -43 -9 0
v -44 -10 0
v -44 -9 0
v -45 -10 0
v -45 -9 0
v -46 -10 0
v -46 -9 0
v -47 -10 0
v -47 -9 0
v -48 -10 0
v -48 -9 0
v -49 -10 0
v -49 -9 0
v -50 -10 0
v -50 -9 0
v -51 -10 0
v -51 -9 0
v -52 -10 0
v -52 -9 0
v -53 -10 0
v -53 -9 0
v -54 -10 0
v -54 -9 0
v -55 -10 0
v -55 -9 0
v -56 -10 0
v -56 -9 0
v -57 -10 0
v -58 -10 0
v -59 -10 0
v -60 -10 0

# Texture cooridinates (Count = 4)
vt 0.06936786 0.8005818
vt 0.09970728 0.8005818
vt 0.09970728 0.8309212
vt 0.06936786 0.8309212

# Normal
vn 0 0 -1

# Groups (Count = 1)

g mesh_0001
f 1/1/1 2/2/1 3/3/1 4/4/1
f 5/1/1 6/2/1 7/3/1 8/4/1
f 6/1/1 9/2/1 10/3/1 7/4/1
f 9/1/1 11/2/1 12/3/1 10/4/1
f 11/1/1 13/2/1 14/3/1 12/4/1
f 13/1/1 15/2/1 16/3/1 14/4/1
f 15/1/1 17/2/1 1/3/1 16/4/1
f 17/1/1 18/2/1 2/3/1 1/4/1
f 19/1/1 20/2/1 6/3/1 5/4/1
f 20/1/1 21/2/1 9/3/1 6/4/1
f 22/1/1 23/2/1 24/3/1 25/4/1
f 23/1/1 26/2/1 27/3/1 24/4/1
f 28/1/1 29/2/1 30/3/1 31/4/1
f 29/1/1 32/2/1 33/3/1 30/4/1
f 32/1/1 34/2/1 19/3/1 33/4/1
f 34/1/1 35/2/1 20/3/1 19/4/1
f 36/1/1 37/2/1 23/3/1 22/4/1
f 37/1/1 38/2/1 26/3/1 23/4/1
f 38/1/1 39/2/1 40/3/1 26/4/1
f 41/1/1 42/2/1 29/3/1 28/4/1
f 42/1/1 43/2/1 32/3/1 29/4/1
f 43/1/1 44/2/1 34/3/1 32/4/1
f 44/1/1 45/2/1 35/3/1 34/4/1
f 46/1/1 47/2/1 38/3/1 37/4/1
f 47/1/1 48/2/1 39/3/1 38/4/1
f 48/1/1 49/2/1 50/3/1 39/4/1
f 51/1/1 52/2/1 53/3/1 54/4/1
f 52/1/1 55/2/1 56/3/1 53/4/1
f 55/1/1 57/2/1 41/3/1 56/4/1
f 57/1/1 58/2/1 42/3/1 41/4/1
f 58/1/1 59/2/1 43/3/1 42/4/1
f 59/1/1 60/2/1 44/3/1 43/4/1
f 60/1/1 61/2/1 45/3/1 44/4/1
f 62/1/1 63/2/1 64/3/1 65/4/1
f 63/1/1 66/2/1 67/3/1 64/4/1
f 66/1/1 68/2/1 46/3/1 67/4/1
f 68/1/1 69/2/1 47/3/1 46/4/1
f 69/1/1 70/2/1 48/3/1 47/4/1
f 70/1/1 71/2/1 49/3/1 48/4/1
f 71/1/1 72/2/1 73/3/1 49/4/1
f 74/1/1 75/2/1 52/3/1 51/4/1
f 75/1/1 76/2/1 55/3/1 52/4/1
f 76/1/1 77/2/1 57/3/1 55/4/1
f 77/1/1 78/2/1 58/3/1 57/4/1
f 78/1/1 79/2/1 59/3/1 58/4/1
f 79/1/1 80/2/1 60/3/1 59/4/1
f 80/1/1 81/2/1 61/3/1 60/4/1
f 82/1/1 83/2/1 62/3/1 84/4/1
f 83/1/1 85/2/1 63/3/1 62/4/1
f 85/1/1 86/2/1 66/3/1 63/4/1
f 86/1/1 87/2/1 68/3/1 66/4/1
f 87/1/1 88/2/1 69/3/1 68/4/1
f 88/1/1 89/2/1 70/3/1 69/4/1
f 89/1/1 90/2/1 71/3/1 70/4/1
f 90/1/1 91/2/1 72/3/1 71/4/1
f 91/1/1 92/2/1 93/3/1 72/4/1
f 92/1/1 94/2/1 95/3/1 93/4/1
f 96/1/1 97/2/1 83/3/1 82/4/1
f 97/1/1 98/2/1 85/3/1 83/4/1
f 98/1/1 99/2/1 86/3/1 85/4/1
f 99/1/1 100/2/1 87/3/1 86/4/1
f 100/1/1 101/2/1 88/3/1 87/4/1
f 101/1/1 102/2/1 89/3/1 88/4/1
f 102/1/1 103/2/1 90/3/1 89/4/1
f 103/1/1 104/2/1 91/3/1 90/4/1
f 104/1/1 105/2/1 92/3/1 91/4/1
f 105/1/1 106/2/1 94/3/1 92/4/1
f 106/1/1 107/2/1 108/3/1 94/4/1
f 107/1/1 109/2/1 110/3/1 108/4/1
f 109/1/1 111/2/1 112/3/1 110/4/1
f 111/1/1 113/2/1 114/3/1 112/4/1
f 113/1/1 115/2/1 116/3/1 114/4/1
f 115/1/1 117/2/1 118/3/1 116/4/1
f 117/1/1 119/2/1 120/3/1 118/4/1
f 119/1/1 121/2/1 122/3/1 120/4/1
f 121/1/1 123/2/1 124/3/1 122/4/1
f 123/1/1 125/2/1 126/3/1 124/4/1
f 125/1/1 127/2/1 128/3/1 126/4/1
f 127/1/1 129/2/1 130/3/1 128/4/1
f 129/1/1 131/2/1 132/3/1 130/4/1
f 131/1/1 133/2/1 134/3/1 132/4/1
f 133/1/1 135/2/1 136/3/1 134/4/1
f 135/1/1 137/2/1 138/3/1 136/4/1
f 137/1/1 139/2/1 140/3/1 138/4/1
f 139/1/1 141/2/1 142/3/1 140/4/1
f 141/1/1 143/2/1 144/3/1 142/4/1
f 143/1/1 145/2/1 146/3/1 144/4/1
f 145/1/1 147/2/1 148/3/1 146/4/1
f 147/1/1 149/2/1 150/3/1 148/4/1
f 149/1/1 151/2/1 152/3/1 150/4/1
f 151/1/1 153/2/1 154/3/1 152/4/1
f 153/1/1 155/2/1 156/3/1 154/4/1
f 155/1/1 157/2/1 158/3/1 156/4/1
f 157/1/1 159/2/1 160/3/1 158/4/1
f 159/1/1 161/2/1 162/3/1 160/4/1
f 163/1/1 164/2/1 165/3/1 166/4/1
f 164/1/1 167/2/1 168/3/1 165/4/1
f 167/1/1 169/2/1 170/3/1 168/4/1
f 171/1/1 172/2/1 97/3/1 96/4/1
f 172/1/1 173/2/1 98/3/1 97/4/1
f 173/1/1 174/2/1 99/3/1 98/4/1
f 174/1/1 175/2/1 100/3/1 99/4/1
f 175/1/1 176/2/1 101/3/1 100/4/1
f 176/1/1 177/2/1 102/3/1 101/4/1
f 177/1/1 178/2/1 103/3/1 102/4/1
f 178/1/1 179/2/1 104/3/1 103/4/1
f 179/1/1 180/2/1 105/3/1 104/4/1
f 180/1/1 181/2/1 106/3/1 105/4/1
f 181/1/1 182/2/1 107/3/1 106/4/1
f 182/1/1 183/2/1 109/3/1 107/4/1
f 183/1/1 184/2/1 111/3/1 109/4/1
f 184/1/1 185/2/1 113/3/1 111/4/1
f 185/1/1 186/2/1 115/3/1 113/4/1
f 186/1/1 187/2/1 117/3/1 115/4/1
f 187/1/1 188/2/1 119/3/1 117/4/1
f 188/1/1 189/2/1 121/3/1 119/4/1
f 189/1/1 190/2/1 123/3/1 121/4/1
f 190/1/1 191/2/1 125/3/1 123/4/1
f 191/1/1 192/2/1 127/3/1 125/4/1
f 192/1/1 193/2/1 129/3/1 127/4/1
f 193/1/1 194/2/1 131/3/1 129/4/1
f 194/1/1 195/2/1 133/3/1 131/4/1
f 195/1/1 196/2/1 135/3/1 133/4/1
f 196/1/1 197/2/1 137/3/1 135/4/1
f 197/1/1 198/2/1 139/3/1 137/4/1
f 198/1/1 199/2/1 141/3/1 139/4/1
f 199/1/1 200/2/1 143/3/1 141/4/1
f 200/1/1 201/2/1 145/3/1 143/4/1
f 201/1/1 202/2/1 147/3/1 145/4/1
f 202/1/1 203/2/1 149/3/1 147/4/1
f 203/1/1 204/2/1 151/3/1 149/4/1
f 204/1/1 205/2/1 153/3/1 151/4/1
f 205/1/1 206/2/1 155/3/1 153/4/1
f 206/1/1 207/2/1 157/3/1 155/4/1
f 207/1/1 208/2/1 159/3/1 157/4/1
f 208/1/1 209/2/1 161/3/1 159/4/1
f 209/1/1 210/2/1 211/3/1 161/4/1
f 210/1/1 212/2/1 213/3/1 211/4/1
f 212/1/1 214/2/1 215/3/1 213/4/1
f 214/1/1 216/2/1 217/3/1 215/4/1
f 216/1/1 218/2/1 219/3/1 217/4/1
f 218/1/1 220/2/1 221/3/1 219/4/1
f 220/1/1 222/2/1 223/3/1 221/4/1
f 222/1/1 224/2/1 225/3/1 223/4/1
f 224/1/1 226/2/1 227/3/1 225/4/1
f 226/1/1 228/2/1 229/3/1 227/4/1
f 228/1/1 230/2/1 231/3/1 229/4/1
f 230/1/1 232/2/1 233/3/1 231/4/1
f 232/1/1 234/2/1 235/3/1 233/4/1
f 234/1/1 236/2/1 237/3/1 235/4/1
f 236/1/1 238/2/1 239/3/1 237/4/1
f 238/1/1 240/2/1 241/3/1 239/4/1
f 240/1/1 242/2/1 243/3/1 241/4/1
f 242/1/1 244/2/1 245/3/1 243/4/1
f 244/1/1 246/2/1 163/3/1 245/4/1
f 246/1/1 247/2/1 164/3/1 163/4/1
f 247/1/1 248/2/1 167/3/1 164/4/1
f 248/1/1 249/2/1 169/3/1 167/4/1

