# Wavefront OBJ file automatically generated by Tiled2Unity

# Vertices (Count = 324)
v 0 -1 0
v -1 -1 0
v -1 0 0
v 0 0 0
v -25 -1 0
v -26 -1 0
v -26 0 0
v -25 0 0
v 0 -2 0
v -1 -2 0
v -25 -2 0
v -26 -2 0
v 0 -3 0
v -1 -3 0
v -25 -3 0
v -26 -3 0
v 0 -4 0
v -1 -4 0
v -25 -4 0
v -26 -4 0
v 0 -5 0
v -1 -5 0
v -25 -5 0
v -26 -5 0
v 0 -6 0
v -1 -6 0
v -25 -6 0
v -26 -6 0
v 0 -7 0
v -1 -7 0
v -25 -7 0
v -26 -7 0
v 0 -8 0
v -1 -8 0
v -25 -8 0
v -26 -8 0
v 0 -9 0
v -1 -9 0
v -25 -9 0
v -26 -9 0
v 0 -10 0
v -1 -10 0
v -25 -10 0
v -26 -10 0
v 0 -11 0
v -1 -11 0
v -23 -11 0
v -24 -11 0
v -24 -10 0
v -23 -10 0
v -25 -11 0
v -26 -11 0
v 0 -12 0
v -1 -12 0
v -19 -12 0
v -20 -12 0
v -20 -11 0
v -19 -11 0
v -21 -12 0
v -21 -11 0
v -22 -12 0
v -22 -11 0
v -23 -12 0
v -24 -12 0
v 0 -13 0
v -1 -13 0
v -2 -13 0
v -2 -12 0
v -19 -13 0
v -20 -13 0
v -21 -13 0
v -25 -13 0
v -26 -13 0
v -26 -12 0
v -25 -12 0
v 0 -14 0
v -1 -14 0
v -2 -14 0
v -3 -14 0
v -3 -13 0
v -4 -14 0
v -4 -13 0
v -5 -14 0
v -5 -13 0
v -16 -14 0
v -17 -14 0
v -17 -13 0
v -16 -13 0
v -18 -14 0
v -18 -13 0
v -19 -14 0
v -20 -14 0
v -24 -14 0
v -25 -14 0
v -24 -13 0
v -26 -14 0
v 0 -15 0
v -1 -15 0
v -2 -15 0
v -3 -15 0
v -4 -15 0
v -5 -15 0
v -6 -15 0
v -6 -14 0
v -16 -15 0
v -17 -15 0
v -18 -15 0
v -19 -15 0
v -20 -15 0
v -25 -15 0
v -26 -15 0
v 0 -16 0
v -1 -16 0
v -2 -16 0
v -3 -16 0
v -4 -16 0
v -5 -16 0
v -6 -16 0
v -7 -16 0
v -7 -15 0
v -13 -16 0
v -14 -16 0
v -14 -15 0
v -13 -15 0
v -15 -16 0
v -15 -15 0
v -16 -16 0
v -17 -16 0
v -18 -16 0
v -19 -16 0
v -20 -16 0
v -25 -16 0
v -26 -16 0
v 0 -17 0
v -1 -17 0
v -2 -17 0
v -3 -17 0
v -4 -17 0
v -5 -17 0
v -6 -17 0
v -7 -17 0
v -8 -17 0
v -8 -16 0
v -13 -17 0
v -14 -17 0
v -15 -17 0
v -16 -17 0
v -17 -17 0
v -18 -17 0
v -19 -17 0
v -20 -17 0
v -24 -17 0
v -25 -17 0
v -24 -16 0
v -26 -17 0
v -27 -17 0
v -27 -16 0
v 0 -18 0
v -1 -18 0
v -2 -18 0
v -3 -18 0
v -4 -18 0
v -5 -18 0
v -6 -18 0
v -7 -18 0
v -8 -18 0
v -9 -18 0
v -9 -17 0
v -10 -18 0
v -10 -17 0
v 0 -19 0
v -1 -19 0
v -2 -19 0
v -3 -19 0
v -4 -19 0
v -5 -19 0
v -6 -19 0
v -7 -19 0
v -8 -19 0
v -9 -19 0
v -10 -19 0
v -11 -19 0
v -11 -18 0
v -12 -19 0
v -12 -18 0
v -13 -19 0
v -13 -18 0
v -14 -19 0
v -14 -18 0
v -15 -19 0
v -15 -18 0
v -16 -19 0
v -16 -18 0
v -17 -19 0
v -17 -18 0
v -18 -19 0
v -18 -18 0
v -19 -19 0
v -19 -18 0
v -20 -19 0
v -20 -18 0
v -21 -19 0
v -21 -18 0
v -22 -19 0
v -22 -18 0
v -23 -19 0
v -23 -18 0
v -24 -19 0
v -24 -18 0
v -25 -19 0
v -25 -18 0
v -26 -19 0
v -26 -18 0
v -27 -19 0
v -27 -18 0
v -28 -19 0
v -28 -18 0
v -29 -19 0
v -29 -18 0
v -30 -19 0
v -30 -18 0
v -31 -19 0
v -31 -18 0
v -32 -19 0
v -32 -18 0
v -33 -19 0
v -33 -18 0
v -34 -19 0
v -34 -18 0
v -35 -19 0
v -35 -18 0
v -36 -19 0
v -36 -18 0
v -37 -19 0
v -37 -18 0
v -38 -19 0
v -38 -18 0
v -57 -19 0
v -58 -19 0
v -58 -18 0
v -57 -18 0
v -59 -19 0
v -59 -18 0
v -60 -19 0
v -60 -18 0
v 0 -20 0
v -1 -20 0
v -2 -20 0
v -3 -20 0
v -4 -20 0
v -5 -20 0
v -6 -20 0
v -7 -20 0
v -8 -20 0
v -9 -20 0
v -10 -20 0
v -11 -20 0
v -12 -20 0
v -13 -20 0
v -14 -20 0
v -15 -20 0
v -16 -20 0
v -17 -20 0
v -18 -20 0
v -19 -20 0
v -20 -20 0
v -21 -20 0
v -22 -20 0
v -23 -20 0
v -24 -20 0
v -25 -20 0
v -26 -20 0
v -27 -20 0
v -28 -20 0
v -29 -20 0
v -30 -20 0
v -31 -20 0
v -32 -20 0
v -33 -20 0
v -34 -20 0
v -35 -20 0
v -36 -20 0
v -37 -20 0
v -38 -20 0
v -39 -20 0
v -39 -19 0
v -40 -20 0
v -40 -19 0
v -41 -20 0
v -41 -19 0
v -42 -20 0
v -42 -19 0
v -43 -20 0
v -43 -19 0
v -44 -20 0
v -44 -19 0
v -45 -20 0
v -45 -19 0
v -46 -20 0
v -46 -19 0
v -47 -20 0
v -47 -19 0
v -48 -20 0
v -48 -19 0
v -49 -20 0
v -49 -19 0
v -50 -20 0
v -50 -19 0
v -51 -20 0
v -51 -19 0
v -52 -20 0
v -52 -19 0
v -53 -20 0
v -53 -19 0
v -54 -20 0
v -54 -19 0
v -55 -20 0
v -55 -19 0
v -56 -20 0
v -56 -19 0
v -57 -20 0
v -58 -20 0
v -59 -20 0
v -60 -20 0

# Texture cooridinates (Count = 4)
vt 0.06936786 0.8005818
vt 0.09970728 0.8005818
vt 0.09970728 0.8309212
vt 0.06936786 0.8309212

# Normal
vn 0 0 -1

# Groups (Count = 1)

g mesh_0001
f 1/1/1 2/2/1 3/3/1 4/4/1
f 5/1/1 6/2/1 7/3/1 8/4/1
f 9/1/1 10/2/1 2/3/1 1/4/1
f 11/1/1 12/2/1 6/3/1 5/4/1
f 13/1/1 14/2/1 10/3/1 9/4/1
f 15/1/1 16/2/1 12/3/1 11/4/1
f 17/1/1 18/2/1 14/3/1 13/4/1
f 19/1/1 20/2/1 16/3/1 15/4/1
f 21/1/1 22/2/1 18/3/1 17/4/1
f 23/1/1 24/2/1 20/3/1 19/4/1
f 25/1/1 26/2/1 22/3/1 21/4/1
f 27/1/1 28/2/1 24/3/1 23/4/1
f 29/1/1 30/2/1 26/3/1 25/4/1
f 31/1/1 32/2/1 28/3/1 27/4/1
f 33/1/1 34/2/1 30/3/1 29/4/1
f 35/1/1 36/2/1 32/3/1 31/4/1
f 37/1/1 38/2/1 34/3/1 33/4/1
f 39/1/1 40/2/1 36/3/1 35/4/1
f 41/1/1 42/2/1 38/3/1 37/4/1
f 43/1/1 44/2/1 40/3/1 39/4/1
f 45/1/1 46/2/1 42/3/1 41/4/1
f 47/1/1 48/2/1 49/3/1 50/4/1
f 48/1/1 51/2/1 43/3/1 49/4/1
f 51/1/1 52/2/1 44/3/1 43/4/1
f 53/1/1 54/2/1 46/3/1 45/4/1
f 55/1/1 56/2/1 57/3/1 58/4/1
f 56/1/1 59/2/1 60/3/1 57/4/1
f 59/1/1 61/2/1 62/3/1 60/4/1
f 61/1/1 63/2/1 47/3/1 62/4/1
f 63/1/1 64/2/1 48/3/1 47/4/1
f 65/1/1 66/2/1 54/3/1 53/4/1
f 66/1/1 67/2/1 68/3/1 54/4/1
f 69/1/1 70/2/1 56/3/1 55/4/1
f 70/1/1 71/2/1 59/3/1 56/4/1
f 72/1/1 73/2/1 74/3/1 75/4/1
f 76/1/1 77/2/1 66/3/1 65/4/1
f 77/1/1 78/2/1 67/3/1 66/4/1
f 78/1/1 79/2/1 80/3/1 67/4/1
f 79/1/1 81/2/1 82/3/1 80/4/1
f 81/1/1 83/2/1 84/3/1 82/4/1
f 85/1/1 86/2/1 87/3/1 88/4/1
f 86/1/1 89/2/1 90/3/1 87/4/1
f 89/1/1 91/2/1 69/3/1 90/4/1
f 91/1/1 92/2/1 70/3/1 69/4/1
f 93/1/1 94/2/1 72/3/1 95/4/1
f 94/1/1 96/2/1 73/3/1 72/4/1
f 97/1/1 98/2/1 77/3/1 76/4/1
f 98/1/1 99/2/1 78/3/1 77/4/1
f 99/1/1 100/2/1 79/3/1 78/4/1
f 100/1/1 101/2/1 81/3/1 79/4/1
f 101/1/1 102/2/1 83/3/1 81/4/1
f 102/1/1 103/2/1 104/3/1 83/4/1
f 105/1/1 106/2/1 86/3/1 85/4/1
f 106/1/1 107/2/1 89/3/1 86/4/1
f 107/1/1 108/2/1 91/3/1 89/4/1
f 108/1/1 109/2/1 92/3/1 91/4/1
f 110/1/1 111/2/1 96/3/1 94/4/1
f 112/1/1 113/2/1 98/3/1 97/4/1
f 113/1/1 114/2/1 99/3/1 98/4/1
f 114/1/1 115/2/1 100/3/1 99/4/1
f 115/1/1 116/2/1 101/3/1 100/4/1
f 116/1/1 117/2/1 102/3/1 101/4/1
f 117/1/1 118/2/1 103/3/1 102/4/1
f 118/1/1 119/2/1 120/3/1 103/4/1
f 121/1/1 122/2/1 123/3/1 124/4/1
f 122/1/1 125/2/1 126/3/1 123/4/1
f 125/1/1 127/2/1 105/3/1 126/4/1
f 127/1/1 128/2/1 106/3/1 105/4/1
f 128/1/1 129/2/1 107/3/1 106/4/1
f 129/1/1 130/2/1 108/3/1 107/4/1
f 130/1/1 131/2/1 109/3/1 108/4/1
f 132/1/1 133/2/1 111/3/1 110/4/1
f 134/1/1 135/2/1 113/3/1 112/4/1
f 135/1/1 136/2/1 114/3/1 113/4/1
f 136/1/1 137/2/1 115/3/1 114/4/1
f 137/1/1 138/2/1 116/3/1 115/4/1
f 138/1/1 139/2/1 117/3/1 116/4/1
f 139/1/1 140/2/1 118/3/1 117/4/1
f 140/1/1 141/2/1 119/3/1 118/4/1
f 141/1/1 142/2/1 143/3/1 119/4/1
f 144/1/1 145/2/1 122/3/1 121/4/1
f 145/1/1 146/2/1 125/3/1 122/4/1
f 146/1/1 147/2/1 127/3/1 125/4/1
f 147/1/1 148/2/1 128/3/1 127/4/1
f 148/1/1 149/2/1 129/3/1 128/4/1
f 149/1/1 150/2/1 130/3/1 129/4/1
f 150/1/1 151/2/1 131/3/1 130/4/1
f 152/1/1 153/2/1 132/3/1 154/4/1
f 153/1/1 155/2/1 133/3/1 132/4/1
f 155/1/1 156/2/1 157/3/1 133/4/1
f 158/1/1 159/2/1 135/3/1 134/4/1
f 159/1/1 160/2/1 136/3/1 135/4/1
f 160/1/1 161/2/1 137/3/1 136/4/1
f 161/1/1 162/2/1 138/3/1 137/4/1
f 162/1/1 163/2/1 139/3/1 138/4/1
f 163/1/1 164/2/1 140/3/1 139/4/1
f 164/1/1 165/2/1 141/3/1 140/4/1
f 165/1/1 166/2/1 142/3/1 141/4/1
f 166/1/1 167/2/1 168/3/1 142/4/1
f 167/1/1 169/2/1 170/3/1 168/4/1
f 171/1/1 172/2/1 159/3/1 158/4/1
f 172/1/1 173/2/1 160/3/1 159/4/1
f 173/1/1 174/2/1 161/3/1 160/4/1
f 174/1/1 175/2/1 162/3/1 161/4/1
f 175/1/1 176/2/1 163/3/1 162/4/1
f 176/1/1 177/2/1 164/3/1 163/4/1
f 177/1/1 178/2/1 165/3/1 164/4/1
f 178/1/1 179/2/1 166/3/1 165/4/1
f 179/1/1 180/2/1 167/3/1 166/4/1
f 180/1/1 181/2/1 169/3/1 167/4/1
f 181/1/1 182/2/1 183/3/1 169/4/1
f 182/1/1 184/2/1 185/3/1 183/4/1
f 184/1/1 186/2/1 187/3/1 185/4/1
f 186/1/1 188/2/1 189/3/1 187/4/1
f 188/1/1 190/2/1 191/3/1 189/4/1
f 190/1/1 192/2/1 193/3/1 191/4/1
f 192/1/1 194/2/1 195/3/1 193/4/1
f 194/1/1 196/2/1 197/3/1 195/4/1
f 196/1/1 198/2/1 199/3/1 197/4/1
f 198/1/1 200/2/1 201/3/1 199/4/1
f 200/1/1 202/2/1 203/3/1 201/4/1
f 202/1/1 204/2/1 205/3/1 203/4/1
f 204/1/1 206/2/1 207/3/1 205/4/1
f 206/1/1 208/2/1 209/3/1 207/4/1
f 208/1/1 210/2/1 211/3/1 209/4/1
f 210/1/1 212/2/1 213/3/1 211/4/1
f 212/1/1 214/2/1 215/3/1 213/4/1
f 214/1/1 216/2/1 217/3/1 215/4/1
f 216/1/1 218/2/1 219/3/1 217/4/1
f 218/1/1 220/2/1 221/3/1 219/4/1
f 220/1/1 222/2/1 223/3/1 221/4/1
f 222/1/1 224/2/1 225/3/1 223/4/1
f 224/1/1 226/2/1 227/3/1 225/4/1
f 226/1/1 228/2/1 229/3/1 227/4/1
f 228/1/1 230/2/1 231/3/1 229/4/1
f 230/1/1 232/2/1 233/3/1 231/4/1
f 232/1/1 234/2/1 235/3/1 233/4/1
f 234/1/1 236/2/1 237/3/1 235/4/1
f 238/1/1 239/2/1 240/3/1 241/4/1
f 239/1/1 242/2/1 243/3/1 240/4/1
f 242/1/1 244/2/1 245/3/1 243/4/1
f 246/1/1 247/2/1 172/3/1 171/4/1
f 247/1/1 248/2/1 173/3/1 172/4/1
f 248/1/1 249/2/1 174/3/1 173/4/1
f 249/1/1 250/2/1 175/3/1 174/4/1
f 250/1/1 251/2/1 176/3/1 175/4/1
f 251/1/1 252/2/1 177/3/1 176/4/1
f 252/1/1 253/2/1 178/3/1 177/4/1
f 253/1/1 254/2/1 179/3/1 178/4/1
f 254/1/1 255/2/1 180/3/1 179/4/1
f 255/1/1 256/2/1 181/3/1 180/4/1
f 256/1/1 257/2/1 182/3/1 181/4/1
f 257/1/1 258/2/1 184/3/1 182/4/1
f 258/1/1 259/2/1 186/3/1 184/4/1
f 259/1/1 260/2/1 188/3/1 186/4/1
f 260/1/1 261/2/1 190/3/1 188/4/1
f 261/1/1 262/2/1 192/3/1 190/4/1
f 262/1/1 263/2/1 194/3/1 192/4/1
f 263/1/1 264/2/1 196/3/1 194/4/1
f 264/1/1 265/2/1 198/3/1 196/4/1
f 265/1/1 266/2/1 200/3/1 198/4/1
f 266/1/1 267/2/1 202/3/1 200/4/1
f 267/1/1 268/2/1 204/3/1 202/4/1
f 268/1/1 269/2/1 206/3/1 204/4/1
f 269/1/1 270/2/1 208/3/1 206/4/1
f 270/1/1 271/2/1 210/3/1 208/4/1
f 271/1/1 272/2/1 212/3/1 210/4/1
f 272/1/1 273/2/1 214/3/1 212/4/1
f 273/1/1 274/2/1 216/3/1 214/4/1
f 274/1/1 275/2/1 218/3/1 216/4/1
f 275/1/1 276/2/1 220/3/1 218/4/1
f 276/1/1 277/2/1 222/3/1 220/4/1
f 277/1/1 278/2/1 224/3/1 222/4/1
f 278/1/1 279/2/1 226/3/1 224/4/1
f 279/1/1 280/2/1 228/3/1 226/4/1
f 280/1/1 281/2/1 230/3/1 228/4/1
f 281/1/1 282/2/1 232/3/1 230/4/1
f 282/1/1 283/2/1 234/3/1 232/4/1
f 283/1/1 284/2/1 236/3/1 234/4/1
f 284/1/1 285/2/1 286/3/1 236/4/1
f 285/1/1 287/2/1 288/3/1 286/4/1
f 287/1/1 289/2/1 290/3/1 288/4/1
f 289/1/1 291/2/1 292/3/1 290/4/1
f 291/1/1 293/2/1 294/3/1 292/4/1
f 293/1/1 295/2/1 296/3/1 294/4/1
f 295/1/1 297/2/1 298/3/1 296/4/1
f 297/1/1 299/2/1 300/3/1 298/4/1
f 299/1/1 301/2/1 302/3/1 300/4/1
f 301/1/1 303/2/1 304/3/1 302/4/1
f 303/1/1 305/2/1 306/3/1 304/4/1
f 305/1/1 307/2/1 308/3/1 306/4/1
f 307/1/1 309/2/1 310/3/1 308/4/1
f 309/1/1 311/2/1 312/3/1 310/4/1
f 311/1/1 313/2/1 314/3/1 312/4/1
f 313/1/1 315/2/1 316/3/1 314/4/1
f 315/1/1 317/2/1 318/3/1 316/4/1
f 317/1/1 319/2/1 320/3/1 318/4/1
f 319/1/1 321/2/1 238/3/1 320/4/1
f 321/1/1 322/2/1 239/3/1 238/4/1
f 322/1/1 323/2/1 242/3/1 239/4/1
f 323/1/1 324/2/1 244/3/1 242/4/1

