# Wavefront OBJ file automatically generated by Tiled2Unity

# Vertices (Count = 236)
v -3.99 -0.42 0
v -4.2 -0.42 0
v -4.2 -0.21 0
v -3.99 -0.21 0
v -3.78 -0.63 0
v -3.99 -0.63 0
v -3.78 -0.42 0
v -4.2 -0.63 0
v -0.63 -0.84 0
v -0.84 -0.84 0
v -0.84 -0.63 0
v -0.63 -0.63 0
v -1.05 -0.84 0
v -1.05 -0.63 0
v -3.36 -0.84 0
v -3.57 -0.84 0
v -3.57 -0.63 0
v -3.36 -0.63 0
v -3.78 -0.84 0
v -3.99 -0.84 0
v -4.2 -0.84 0
v -0.63 -1.05 0
v -0.84 -1.05 0
v -1.05 -1.05 0
v -1.26 -1.05 0
v -1.26 -0.84 0
v -3.15 -1.05 0
v -3.36 -1.05 0
v -3.15 -0.84 0
v -3.57 -1.05 0
v -3.78 -1.05 0
v -3.99 -1.05 0
v -4.2 -1.05 0
v -0.84 -1.26 0
v -1.05 -1.26 0
v -1.26 -1.26 0
v -1.47 -1.26 0
v -1.47 -1.05 0
v -2.73 -1.26 0
v -2.94 -1.26 0
v -2.94 -1.05 0
v -2.73 -1.05 0
v -3.15 -1.26 0
v -3.36 -1.26 0
v -3.57 -1.26 0
v -3.78 -1.26 0
v -3.99 -1.26 0
v -4.2 -1.26 0
v -0.21 -1.47 0
v -0.42 -1.47 0
v -0.42 -1.26 0
v -0.21 -1.26 0
v -0.63 -1.47 0
v -0.63 -1.26 0
v -0.84 -1.47 0
v -1.05 -1.47 0
v -1.26 -1.47 0
v -1.47 -1.47 0
v -1.68 -1.47 0
v -1.68 -1.26 0
v -2.73 -1.47 0
v -2.94 -1.47 0
v -3.15 -1.47 0
v -3.36 -1.47 0
v -3.57 -1.47 0
v -3.78 -1.47 0
v -3.99 -1.47 0
v -4.2 -1.47 0
v 0 -1.68 0
v -0.21 -1.68 0
v 0 -1.47 0
v -0.42 -1.68 0
v -0.63 -1.68 0
v -0.84 -1.68 0
v -1.05 -1.68 0
v -1.26 -1.68 0
v -1.47 -1.68 0
v -1.68 -1.68 0
v -1.89 -1.68 0
v -1.89 -1.47 0
v -2.1 -1.68 0
v -2.1 -1.47 0
v -2.73 -1.68 0
v -2.94 -1.68 0
v -3.15 -1.68 0
v -3.36 -1.68 0
v -3.57 -1.68 0
v -3.78 -1.68 0
v -3.99 -1.68 0
v -4.2 -1.68 0
v 0 -1.89 0
v -0.21 -1.89 0
v -0.42 -1.89 0
v -0.63 -1.89 0
v -0.84 -1.89 0
v -1.05 -1.89 0
v -1.26 -1.89 0
v -1.47 -1.89 0
v -1.68 -1.89 0
v -1.89 -1.89 0
v -2.1 -1.89 0
v -2.31 -1.89 0
v -2.31 -1.68 0
v -2.52 -1.89 0
v -2.52 -1.68 0
v -2.73 -1.89 0
v -2.94 -1.89 0
v -3.15 -1.89 0
v -3.36 -1.89 0
v -3.57 -1.89 0
v -3.78 -1.89 0
v -3.99 -1.89 0
v -4.2 -1.89 0
v -4.41 -1.89 0
v -4.41 -1.68 0
v -4.62 -1.89 0
v -4.62 -1.68 0
v -4.83 -1.89 0
v -4.83 -1.68 0
v -5.04 -1.89 0
v -5.04 -1.68 0
v -5.25 -1.89 0
v -5.25 -1.68 0
v -5.46 -1.89 0
v -5.46 -1.68 0
v -5.67 -1.89 0
v -5.67 -1.68 0
v -5.88 -1.89 0
v -5.88 -1.68 0
v -6.09 -1.89 0
v -6.09 -1.68 0
v -6.3 -1.89 0
v -6.3 -1.68 0
v -6.51 -1.89 0
v -6.51 -1.68 0
v -6.72 -1.89 0
v -6.72 -1.68 0
v -6.93 -1.89 0
v -6.93 -1.68 0
v -7.14 -1.89 0
v -7.14 -1.68 0
v -7.35 -1.89 0
v -7.35 -1.68 0
v -7.56 -1.89 0
v -7.56 -1.68 0
v -7.77 -1.89 0
v -7.77 -1.68 0
v -7.98 -1.89 0
v -7.98 -1.68 0
v -11.97 -1.89 0
v -12.18 -1.89 0
v -12.18 -1.68 0
v -11.97 -1.68 0
v -12.39 -1.89 0
v -12.39 -1.68 0
v -12.6 -1.89 0
v -12.6 -1.68 0
v 0 -2.1 0
v -0.21 -2.1 0
v -0.42 -2.1 0
v -0.63 -2.1 0
v -0.84 -2.1 0
v -1.05 -2.1 0
v -1.26 -2.1 0
v -1.47 -2.1 0
v -1.68 -2.1 0
v -1.89 -2.1 0
v -2.1 -2.1 0
v -2.31 -2.1 0
v -2.52 -2.1 0
v -2.73 -2.1 0
v -2.94 -2.1 0
v -3.15 -2.1 0
v -3.36 -2.1 0
v -3.57 -2.1 0
v -3.78 -2.1 0
v -3.99 -2.1 0
v -4.2 -2.1 0
v -4.41 -2.1 0
v -4.62 -2.1 0
v -4.83 -2.1 0
v -5.04 -2.1 0
v -5.25 -2.1 0
v -5.46 -2.1 0
v -5.67 -2.1 0
v -5.88 -2.1 0
v -6.09 -2.1 0
v -6.3 -2.1 0
v -6.51 -2.1 0
v -6.72 -2.1 0
v -6.93 -2.1 0
v -7.14 -2.1 0
v -7.35 -2.1 0
v -7.56 -2.1 0
v -7.77 -2.1 0
v -7.98 -2.1 0
v -8.19 -2.1 0
v -8.19 -1.89 0
v -8.4 -2.1 0
v -8.4 -1.89 0
v -8.61 -2.1 0
v -8.61 -1.89 0
v -8.82 -2.1 0
v -8.82 -1.89 0
v -9.03 -2.1 0
v -9.03 -1.89 0
v -9.24 -2.1 0
v -9.24 -1.89 0
v -9.45 -2.1 0
v -9.45 -1.89 0
v -9.66 -2.1 0
v -9.66 -1.89 0
v -9.87 -2.1 0
v -9.87 -1.89 0
v -10.08 -2.1 0
v -10.08 -1.89 0
v -10.29 -2.1 0
v -10.29 -1.89 0
v -10.5 -2.1 0
v -10.5 -1.89 0
v -10.71 -2.1 0
v -10.71 -1.89 0
v -10.92 -2.1 0
v -10.92 -1.89 0
v -11.13 -2.1 0
v -11.13 -1.89 0
v -11.34 -2.1 0
v -11.34 -1.89 0
v -11.55 -2.1 0
v -11.55 -1.89 0
v -11.76 -2.1 0
v -11.76 -1.89 0
v -11.97 -2.1 0
v -12.18 -2.1 0
v -12.39 -2.1 0
v -12.6 -2.1 0

# Texture cooridinates (Count = 4)
vt 0.06936786 0.8005818
vt 0.09970728 0.8005818
vt 0.09970728 0.8309212
vt 0.06936786 0.8309212

# Normal
vn 0 0 -1

# Groups (Count = 1)

g mesh_0001
f 1/1/1 2/2/1 3/3/1 4/4/1
f 5/1/1 6/2/1 1/3/1 7/4/1
f 6/1/1 8/2/1 2/3/1 1/4/1
f 9/1/1 10/2/1 11/3/1 12/4/1
f 10/1/1 13/2/1 14/3/1 11/4/1
f 15/1/1 16/2/1 17/3/1 18/4/1
f 16/1/1 19/2/1 5/3/1 17/4/1
f 19/1/1 20/2/1 6/3/1 5/4/1
f 20/1/1 21/2/1 8/3/1 6/4/1
f 22/1/1 23/2/1 10/3/1 9/4/1
f 23/1/1 24/2/1 13/3/1 10/4/1
f 24/1/1 25/2/1 26/3/1 13/4/1
f 27/1/1 28/2/1 15/3/1 29/4/1
f 28/1/1 30/2/1 16/3/1 15/4/1
f 30/1/1 31/2/1 19/3/1 16/4/1
f 31/1/1 32/2/1 20/3/1 19/4/1
f 32/1/1 33/2/1 21/3/1 20/4/1
f 34/1/1 35/2/1 24/3/1 23/4/1
f 35/1/1 36/2/1 25/3/1 24/4/1
f 36/1/1 37/2/1 38/3/1 25/4/1
f 39/1/1 40/2/1 41/3/1 42/4/1
f 40/1/1 43/2/1 27/3/1 41/4/1
f 43/1/1 44/2/1 28/3/1 27/4/1
f 44/1/1 45/2/1 30/3/1 28/4/1
f 45/1/1 46/2/1 31/3/1 30/4/1
f 46/1/1 47/2/1 32/3/1 31/4/1
f 47/1/1 48/2/1 33/3/1 32/4/1
f 49/1/1 50/2/1 51/3/1 52/4/1
f 50/1/1 53/2/1 54/3/1 51/4/1
f 53/1/1 55/2/1 34/3/1 54/4/1
f 55/1/1 56/2/1 35/3/1 34/4/1
f 56/1/1 57/2/1 36/3/1 35/4/1
f 57/1/1 58/2/1 37/3/1 36/4/1
f 58/1/1 59/2/1 60/3/1 37/4/1
f 61/1/1 62/2/1 40/3/1 39/4/1
f 62/1/1 63/2/1 43/3/1 40/4/1
f 63/1/1 64/2/1 44/3/1 43/4/1
f 64/1/1 65/2/1 45/3/1 44/4/1
f 65/1/1 66/2/1 46/3/1 45/4/1
f 66/1/1 67/2/1 47/3/1 46/4/1
f 67/1/1 68/2/1 48/3/1 47/4/1
f 69/1/1 70/2/1 49/3/1 71/4/1
f 70/1/1 72/2/1 50/3/1 49/4/1
f 72/1/1 73/2/1 53/3/1 50/4/1
f 73/1/1 74/2/1 55/3/1 53/4/1
f 74/1/1 75/2/1 56/3/1 55/4/1
f 75/1/1 76/2/1 57/3/1 56/4/1
f 76/1/1 77/2/1 58/3/1 57/4/1
f 77/1/1 78/2/1 59/3/1 58/4/1
f 78/1/1 79/2/1 80/3/1 59/4/1
f 79/1/1 81/2/1 82/3/1 80/4/1
f 83/1/1 84/2/1 62/3/1 61/4/1
f 84/1/1 85/2/1 63/3/1 62/4/1
f 85/1/1 86/2/1 64/3/1 63/4/1
f 86/1/1 87/2/1 65/3/1 64/4/1
f 87/1/1 88/2/1 66/3/1 65/4/1
f 88/1/1 89/2/1 67/3/1 66/4/1
f 89/1/1 90/2/1 68/3/1 67/4/1
f 91/1/1 92/2/1 70/3/1 69/4/1
f 92/1/1 93/2/1 72/3/1 70/4/1
f 93/1/1 94/2/1 73/3/1 72/4/1
f 94/1/1 95/2/1 74/3/1 73/4/1
f 95/1/1 96/2/1 75/3/1 74/4/1
f 96/1/1 97/2/1 76/3/1 75/4/1
f 97/1/1 98/2/1 77/3/1 76/4/1
f 98/1/1 99/2/1 78/3/1 77/4/1
f 99/1/1 100/2/1 79/3/1 78/4/1
f 100/1/1 101/2/1 81/3/1 79/4/1
f 101/1/1 102/2/1 103/3/1 81/4/1
f 102/1/1 104/2/1 105/3/1 103/4/1
f 104/1/1 106/2/1 83/3/1 105/4/1
f 106/1/1 107/2/1 84/3/1 83/4/1
f 107/1/1 108/2/1 85/3/1 84/4/1
f 108/1/1 109/2/1 86/3/1 85/4/1
f 109/1/1 110/2/1 87/3/1 86/4/1
f 110/1/1 111/2/1 88/3/1 87/4/1
f 111/1/1 112/2/1 89/3/1 88/4/1
f 112/1/1 113/2/1 90/3/1 89/4/1
f 113/1/1 114/2/1 115/3/1 90/4/1
f 114/1/1 116/2/1 117/3/1 115/4/1
f 116/1/1 118/2/1 119/3/1 117/4/1
f 118/1/1 120/2/1 121/3/1 119/4/1
f 120/1/1 122/2/1 123/3/1 121/4/1
f 122/1/1 124/2/1 125/3/1 123/4/1
f 124/1/1 126/2/1 127/3/1 125/4/1
f 126/1/1 128/2/1 129/3/1 127/4/1
f 128/1/1 130/2/1 131/3/1 129/4/1
f 130/1/1 132/2/1 133/3/1 131/4/1
f 132/1/1 134/2/1 135/3/1 133/4/1
f 134/1/1 136/2/1 137/3/1 135/4/1
f 136/1/1 138/2/1 139/3/1 137/4/1
f 138/1/1 140/2/1 141/3/1 139/4/1
f 140/1/1 142/2/1 143/3/1 141/4/1
f 142/1/1 144/2/1 145/3/1 143/4/1
f 144/1/1 146/2/1 147/3/1 145/4/1
f 146/1/1 148/2/1 149/3/1 147/4/1
f 150/1/1 151/2/1 152/3/1 153/4/1
f 151/1/1 154/2/1 155/3/1 152/4/1
f 154/1/1 156/2/1 157/3/1 155/4/1
f 158/1/1 159/2/1 92/3/1 91/4/1
f 159/1/1 160/2/1 93/3/1 92/4/1
f 160/1/1 161/2/1 94/3/1 93/4/1
f 161/1/1 162/2/1 95/3/1 94/4/1
f 162/1/1 163/2/1 96/3/1 95/4/1
f 163/1/1 164/2/1 97/3/1 96/4/1
f 164/1/1 165/2/1 98/3/1 97/4/1
f 165/1/1 166/2/1 99/3/1 98/4/1
f 166/1/1 167/2/1 100/3/1 99/4/1
f 167/1/1 168/2/1 101/3/1 100/4/1
f 168/1/1 169/2/1 102/3/1 101/4/1
f 169/1/1 170/2/1 104/3/1 102/4/1
f 170/1/1 171/2/1 106/3/1 104/4/1
f 171/1/1 172/2/1 107/3/1 106/4/1
f 172/1/1 173/2/1 108/3/1 107/4/1
f 173/1/1 174/2/1 109/3/1 108/4/1
f 174/1/1 175/2/1 110/3/1 109/4/1
f 175/1/1 176/2/1 111/3/1 110/4/1
f 176/1/1 177/2/1 112/3/1 111/4/1
f 177/1/1 178/2/1 113/3/1 112/4/1
f 178/1/1 179/2/1 114/3/1 113/4/1
f 179/1/1 180/2/1 116/3/1 114/4/1
f 180/1/1 181/2/1 118/3/1 116/4/1
f 181/1/1 182/2/1 120/3/1 118/4/1
f 182/1/1 183/2/1 122/3/1 120/4/1
f 183/1/1 184/2/1 124/3/1 122/4/1
f 184/1/1 185/2/1 126/3/1 124/4/1
f 185/1/1 186/2/1 128/3/1 126/4/1
f 186/1/1 187/2/1 130/3/1 128/4/1
f 187/1/1 188/2/1 132/3/1 130/4/1
f 188/1/1 189/2/1 134/3/1 132/4/1
f 189/1/1 190/2/1 136/3/1 134/4/1
f 190/1/1 191/2/1 138/3/1 136/4/1
f 191/1/1 192/2/1 140/3/1 138/4/1
f 192/1/1 193/2/1 142/3/1 140/4/1
f 193/1/1 194/2/1 144/3/1 142/4/1
f 194/1/1 195/2/1 146/3/1 144/4/1
f 195/1/1 196/2/1 148/3/1 146/4/1
f 196/1/1 197/2/1 198/3/1 148/4/1
f 197/1/1 199/2/1 200/3/1 198/4/1
f 199/1/1 201/2/1 202/3/1 200/4/1
f 201/1/1 203/2/1 204/3/1 202/4/1
f 203/1/1 205/2/1 206/3/1 204/4/1
f 205/1/1 207/2/1 208/3/1 206/4/1
f 207/1/1 209/2/1 210/3/1 208/4/1
f 209/1/1 211/2/1 212/3/1 210/4/1
f 211/1/1 213/2/1 214/3/1 212/4/1
f 213/1/1 215/2/1 216/3/1 214/4/1
f 215/1/1 217/2/1 218/3/1 216/4/1
f 217/1/1 219/2/1 220/3/1 218/4/1
f 219/1/1 221/2/1 222/3/1 220/4/1
f 221/1/1 223/2/1 224/3/1 222/4/1
f 223/1/1 225/2/1 226/3/1 224/4/1
f 225/1/1 227/2/1 228/3/1 226/4/1
f 227/1/1 229/2/1 230/3/1 228/4/1
f 229/1/1 231/2/1 232/3/1 230/4/1
f 231/1/1 233/2/1 150/3/1 232/4/1
f 233/1/1 234/2/1 151/3/1 150/4/1
f 234/1/1 235/2/1 154/3/1 151/4/1
f 235/1/1 236/2/1 156/3/1 154/4/1

