# Wavefront OBJ file automatically generated by Tiled2Unity

# Vertices (Count = 318)
v -9 -5 0
v -10 -5 0
v -10 -4 0
v -9 -4 0
v -11 -5 0
v -11 -4 0
v -12 -5 0
v -12 -4 0
v -13 -5 0
v -13 -4 0
v -14 -5 0
v -14 -4 0
v -13 -6 0
v -14 -6 0
v -15 -6 0
v -15 -5 0
v -14 -7 0
v -15 -7 0
v -16 -7 0
v -16 -6 0
v -38 -7 0
v -39 -7 0
v -39 -6 0
v -38 -6 0
v -40 -7 0
v -40 -6 0
v -15 -8 0
v -16 -8 0
v -17 -8 0
v -17 -7 0
v -38 -8 0
v -39 -8 0
v -40 -8 0
v -38 -9 0
v -39 -9 0
v -40 -9 0
v -38 -10 0
v -39 -10 0
v -40 -10 0
v 0 -11 0
v -1 -11 0
v -1 -10 0
v 0 -10 0
v -2 -11 0
v -2 -10 0
v -38 -11 0
v -39 -11 0
v -40 -11 0
v 0 -12 0
v -1 -12 0
v -2 -12 0
v -16 -12 0
v -17 -12 0
v -17 -11 0
v -16 -11 0
v -18 -12 0
v -18 -11 0
v -19 -12 0
v -19 -11 0
v -35 -12 0
v -36 -12 0
v -36 -11 0
v -35 -11 0
v -37 -12 0
v -37 -11 0
v -38 -12 0
v -39 -12 0
v -40 -12 0
v 0 -13 0
v -1 -13 0
v -2 -13 0
v -16 -13 0
v -17 -13 0
v -18 -13 0
v -19 -13 0
v -29 -13 0
v -30 -13 0
v -30 -12 0
v -29 -12 0
v -31 -13 0
v -31 -12 0
v -32 -13 0
v -32 -12 0
v -35 -13 0
v -36 -13 0
v -37 -13 0
v -38 -13 0
v -39 -13 0
v -40 -13 0
v 0 -14 0
v -1 -14 0
v -2 -14 0
v -16 -14 0
v -17 -14 0
v -18 -14 0
v -19 -14 0
v -29 -14 0
v -30 -14 0
v -31 -14 0
v -32 -14 0
v -35 -14 0
v -36 -14 0
v -37 -14 0
v -38 -14 0
v -39 -14 0
v -40 -14 0
v 0 -15 0
v -1 -15 0
v -2 -15 0
v -6 -15 0
v -7 -15 0
v -7 -14 0
v -6 -14 0
v -8 -15 0
v -8 -14 0
v -9 -15 0
v -9 -14 0
v -16 -15 0
v -17 -15 0
v -18 -15 0
v -19 -15 0
v -26 -15 0
v -27 -15 0
v -27 -14 0
v -26 -14 0
v -28 -15 0
v -28 -14 0
v -29 -15 0
v -30 -15 0
v -31 -15 0
v -32 -15 0
v 0 -16 0
v -1 -16 0
v -2 -16 0
v -6 -16 0
v -7 -16 0
v -8 -16 0
v -9 -16 0
v -16 -16 0
v -17 -16 0
v -18 -16 0
v -19 -16 0
v -26 -16 0
v -27 -16 0
v -28 -16 0
v -29 -16 0
v -30 -16 0
v -31 -16 0
v -32 -16 0
v 0 -17 0
v -1 -17 0
v -2 -17 0
v -3 -17 0
v -3 -16 0
v -4 -17 0
v -4 -16 0
v -5 -17 0
v -5 -16 0
v -6 -17 0
v -7 -17 0
v -8 -17 0
v -9 -17 0
v -10 -17 0
v -10 -16 0
v -11 -17 0
v -11 -16 0
v -12 -17 0
v -12 -16 0
v -16 -17 0
v -17 -17 0
v -18 -17 0
v -19 -17 0
v -23 -17 0
v -24 -17 0
v -24 -16 0
v -23 -16 0
v -25 -17 0
v -25 -16 0
v -26 -17 0
v -27 -17 0
v -28 -17 0
v -29 -17 0
v -30 -17 0
v -31 -17 0
v -32 -17 0
v 0 -18 0
v -1 -18 0
v -2 -18 0
v -3 -18 0
v -4 -18 0
v -5 -18 0
v -6 -18 0
v -7 -18 0
v -8 -18 0
v -9 -18 0
v -10 -18 0
v -11 -18 0
v -12 -18 0
v -13 -18 0
v -13 -17 0
v -14 -18 0
v -14 -17 0
v -16 -18 0
v -17 -18 0
v -18 -18 0
v -19 -18 0
v -21 -18 0
v -22 -18 0
v -22 -17 0
v -21 -17 0
v -23 -18 0
v -24 -18 0
v -25 -18 0
v -26 -18 0
v -27 -18 0
v -28 -18 0
v -29 -18 0
v -30 -18 0
v -31 -18 0
v -32 -18 0
v -33 -18 0
v -33 -17 0
v -34 -18 0
v -34 -17 0
v -35 -18 0
v -35 -17 0
v -36 -18 0
v -36 -17 0
v -37 -18 0
v -37 -17 0
v -38 -18 0
v -38 -17 0
v -39 -18 0
v -39 -17 0
v -40 -18 0
v -40 -17 0
v 0 -19 0
v -1 -19 0
v -2 -19 0
v -3 -19 0
v -4 -19 0
v -5 -19 0
v -6 -19 0
v -7 -19 0
v -8 -19 0
v -9 -19 0
v -10 -19 0
v -11 -19 0
v -12 -19 0
v -13 -19 0
v -14 -19 0
v -21 -19 0
v -22 -19 0
v -23 -19 0
v -24 -19 0
v -25 -19 0
v -26 -19 0
v -27 -19 0
v -28 -19 0
v -29 -19 0
v -30 -19 0
v -31 -19 0
v -32 -19 0
v -33 -19 0
v -34 -19 0
v -35 -19 0
v -36 -19 0
v -37 -19 0
v -38 -19 0
v -39 -19 0
v -40 -19 0
v 0 -20 0
v -1 -20 0
v -2 -20 0
v -3 -20 0
v -4 -20 0
v -5 -20 0
v -6 -20 0
v -7 -20 0
v -8 -20 0
v -9 -20 0
v -10 -20 0
v -11 -20 0
v -12 -20 0
v -13 -20 0
v -14 -20 0
v -15 -20 0
v -15 -19 0
v -16 -20 0
v -16 -19 0
v -17 -20 0
v -17 -19 0
v -18 -20 0
v -18 -19 0
v -19 -20 0
v -19 -19 0
v -20 -20 0
v -20 -19 0
v -21 -20 0
v -22 -20 0
v -23 -20 0
v -24 -20 0
v -25 -20 0
v -26 -20 0
v -27 -20 0
v -28 -20 0
v -29 -20 0
v -30 -20 0
v -31 -20 0
v -32 -20 0
v -33 -20 0
v -34 -20 0
v -35 -20 0
v -36 -20 0
v -37 -20 0
v -38 -20 0
v -39 -20 0
v -40 -20 0

# Texture cooridinates (Count = 24)
vt 2.034505E-05 0.333374
vt 0.1666463 0.333374
vt 0.1666463 0.666626
vt 2.034505E-05 0.666626
vt 0.166687 0.333374
vt 0.333313 0.333374
vt 0.333313 0.666626
vt 0.166687 0.666626
vt 0.3333537 0.333374
vt 0.4999796 0.333374
vt 0.4999796 0.666626
vt 0.3333537 0.666626
vt 2.034505E-05 4.070997E-05
vt 0.1666463 4.070997E-05
vt 0.1666463 0.3332927
vt 2.034505E-05 0.3332927
vt 0.166687 4.070997E-05
vt 0.333313 4.070997E-05
vt 0.333313 0.3332927
vt 0.166687 0.3332927
vt 0.3333537 4.070997E-05
vt 0.4999796 4.070997E-05
vt 0.4999796 0.3332927
vt 0.3333537 0.3332927

# Normal
vn 0 0 -1

# Groups (Count = 1)

g mesh_0003
f 1/1/1 2/2/1 3/3/1 4/4/1
f 2/5/1 5/6/1 6/7/1 3/8/1
f 5/5/1 7/6/1 8/7/1 6/8/1
f 7/5/1 9/6/1 10/7/1 8/8/1
f 9/9/1 11/10/1 12/11/1 10/12/1
f 13/13/1 14/14/1 11/15/1 9/16/1
f 14/9/1 15/10/1 16/11/1 11/12/1
f 17/13/1 18/14/1 15/15/1 14/16/1
f 18/9/1 19/10/1 20/11/1 15/12/1
f 21/1/1 22/2/1 23/3/1 24/4/1
f 22/5/1 25/6/1 26/7/1 23/8/1
f 27/13/1 28/14/1 19/15/1 18/16/1
f 28/9/1 29/10/1 30/11/1 19/12/1
f 31/13/1 32/14/1 22/15/1 21/16/1
f 32/17/1 33/18/1 25/19/1 22/20/1
f 34/13/1 35/14/1 32/15/1 31/16/1
f 35/17/1 36/18/1 33/19/1 32/20/1
f 37/13/1 38/14/1 35/15/1 34/16/1
f 38/17/1 39/18/1 36/19/1 35/20/1
f 40/5/1 41/6/1 42/7/1 43/8/1
f 41/9/1 44/10/1 45/11/1 42/12/1
f 46/13/1 47/14/1 38/15/1 37/16/1
f 47/17/1 48/18/1 39/19/1 38/20/1
f 49/17/1 50/18/1 41/19/1 40/20/1
f 50/21/1 51/22/1 44/23/1 41/24/1
f 52/1/1 53/2/1 54/3/1 55/4/1
f 53/5/1 56/6/1 57/7/1 54/8/1
f 56/9/1 58/10/1 59/11/1 57/12/1
f 60/1/1 61/2/1 62/3/1 63/4/1
f 61/5/1 64/6/1 65/7/1 62/8/1
f 64/5/1 66/6/1 46/7/1 65/8/1
f 66/17/1 67/18/1 47/19/1 46/20/1
f 67/17/1 68/18/1 48/19/1 47/20/1
f 69/17/1 70/18/1 50/19/1 49/20/1
f 70/21/1 71/22/1 51/23/1 50/24/1
f 72/13/1 73/14/1 53/15/1 52/16/1
f 73/17/1 74/18/1 56/19/1 53/20/1
f 74/21/1 75/22/1 58/23/1 56/24/1
f 76/1/1 77/2/1 78/3/1 79/4/1
f 77/5/1 80/6/1 81/7/1 78/8/1
f 80/9/1 82/10/1 83/11/1 81/12/1
f 84/13/1 85/14/1 61/15/1 60/16/1
f 85/17/1 86/18/1 64/19/1 61/20/1
f 86/17/1 87/18/1 66/19/1 64/20/1
f 87/17/1 88/18/1 67/19/1 66/20/1
f 88/17/1 89/18/1 68/19/1 67/20/1
f 90/17/1 91/18/1 70/19/1 69/20/1
f 91/21/1 92/22/1 71/23/1 70/24/1
f 93/13/1 94/14/1 73/15/1 72/16/1
f 94/17/1 95/18/1 74/19/1 73/20/1
f 95/21/1 96/22/1 75/23/1 74/24/1
f 97/13/1 98/14/1 77/15/1 76/16/1
f 98/17/1 99/18/1 80/19/1 77/20/1
f 99/21/1 100/22/1 82/23/1 80/24/1
f 101/13/1 102/14/1 85/15/1 84/16/1
f 102/17/1 103/18/1 86/19/1 85/20/1
f 103/17/1 104/18/1 87/19/1 86/20/1
f 104/17/1 105/18/1 88/19/1 87/20/1
f 105/17/1 106/18/1 89/19/1 88/20/1
f 107/17/1 108/18/1 91/19/1 90/20/1
f 108/21/1 109/22/1 92/23/1 91/24/1
f 110/1/1 111/2/1 112/3/1 113/4/1
f 111/5/1 114/6/1 115/7/1 112/8/1
f 114/9/1 116/10/1 117/11/1 115/12/1
f 118/13/1 119/14/1 94/15/1 93/16/1
f 119/17/1 120/18/1 95/19/1 94/20/1
f 120/21/1 121/22/1 96/23/1 95/24/1
f 122/1/1 123/2/1 124/3/1 125/4/1
f 123/5/1 126/6/1 127/7/1 124/8/1
f 126/5/1 128/6/1 97/7/1 127/8/1
f 128/17/1 129/18/1 98/19/1 97/20/1
f 129/17/1 130/18/1 99/19/1 98/20/1
f 130/21/1 131/22/1 100/23/1 99/24/1
f 132/17/1 133/18/1 108/19/1 107/20/1
f 133/21/1 134/22/1 109/23/1 108/24/1
f 135/13/1 136/14/1 111/15/1 110/16/1
f 136/17/1 137/18/1 114/19/1 111/20/1
f 137/21/1 138/22/1 116/23/1 114/24/1
f 139/13/1 140/14/1 119/15/1 118/16/1
f 140/17/1 141/18/1 120/19/1 119/20/1
f 141/21/1 142/22/1 121/23/1 120/24/1
f 143/13/1 144/14/1 123/15/1 122/16/1
f 144/17/1 145/18/1 126/19/1 123/20/1
f 145/17/1 146/18/1 128/19/1 126/20/1
f 146/17/1 147/18/1 129/19/1 128/20/1
f 147/17/1 148/18/1 130/19/1 129/20/1
f 148/21/1 149/22/1 131/23/1 130/24/1
f 150/17/1 151/18/1 133/19/1 132/20/1
f 151/17/1 152/18/1 134/19/1 133/20/1
f 152/5/1 153/6/1 154/7/1 134/8/1
f 153/5/1 155/6/1 156/7/1 154/8/1
f 155/5/1 157/6/1 158/7/1 156/8/1
f 157/5/1 159/6/1 135/7/1 158/8/1
f 159/17/1 160/18/1 136/19/1 135/20/1
f 160/17/1 161/18/1 137/19/1 136/20/1
f 161/17/1 162/18/1 138/19/1 137/20/1
f 162/5/1 163/6/1 164/7/1 138/8/1
f 163/5/1 165/6/1 166/7/1 164/8/1
f 165/9/1 167/10/1 168/11/1 166/12/1
f 169/13/1 170/14/1 140/15/1 139/16/1
f 170/17/1 171/18/1 141/19/1 140/20/1
f 171/21/1 172/22/1 142/23/1 141/24/1
f 173/1/1 174/2/1 175/3/1 176/4/1
f 174/5/1 177/6/1 178/7/1 175/8/1
f 177/5/1 179/6/1 143/7/1 178/8/1
f 179/17/1 180/18/1 144/19/1 143/20/1
f 180/17/1 181/18/1 145/19/1 144/20/1
f 181/17/1 182/18/1 146/19/1 145/20/1
f 182/17/1 183/18/1 147/19/1 146/20/1
f 183/17/1 184/18/1 148/19/1 147/20/1
f 184/21/1 185/22/1 149/23/1 148/24/1
f 186/17/1 187/18/1 151/19/1 150/20/1
f 187/17/1 188/18/1 152/19/1 151/20/1
f 188/17/1 189/18/1 153/19/1 152/20/1
f 189/17/1 190/18/1 155/19/1 153/20/1
f 190/17/1 191/18/1 157/19/1 155/20/1
f 191/17/1 192/18/1 159/19/1 157/20/1
f 192/17/1 193/18/1 160/19/1 159/20/1
f 193/17/1 194/18/1 161/19/1 160/20/1
f 194/17/1 195/18/1 162/19/1 161/20/1
f 195/17/1 196/18/1 163/19/1 162/20/1
f 196/17/1 197/18/1 165/19/1 163/20/1
f 197/17/1 198/18/1 167/19/1 165/20/1
f 198/5/1 199/6/1 200/7/1 167/8/1
f 199/9/1 201/10/1 202/11/1 200/12/1
f 203/13/1 204/14/1 170/15/1 169/16/1
f 204/17/1 205/18/1 171/19/1 170/20/1
f 205/21/1 206/22/1 172/23/1 171/24/1
f 207/1/1 208/2/1 209/3/1 210/4/1
f 208/5/1 211/6/1 173/7/1 209/8/1
f 211/17/1 212/18/1 174/19/1 173/20/1
f 212/17/1 213/18/1 177/19/1 174/20/1
f 213/17/1 214/18/1 179/19/1 177/20/1
f 214/17/1 215/18/1 180/19/1 179/20/1
f 215/17/1 216/18/1 181/19/1 180/20/1
f 216/17/1 217/18/1 182/19/1 181/20/1
f 217/17/1 218/18/1 183/19/1 182/20/1
f 218/17/1 219/18/1 184/19/1 183/20/1
f 219/17/1 220/18/1 185/19/1 184/20/1
f 220/5/1 221/6/1 222/7/1 185/8/1
f 221/5/1 223/6/1 224/7/1 222/8/1
f 223/5/1 225/6/1 226/7/1 224/8/1
f 225/5/1 227/6/1 228/7/1 226/8/1
f 227/5/1 229/6/1 230/7/1 228/8/1
f 229/5/1 231/6/1 232/7/1 230/8/1
f 231/5/1 233/6/1 234/7/1 232/8/1
f 233/5/1 235/6/1 236/7/1 234/8/1
f 237/17/1 238/18/1 187/19/1 186/20/1
f 238/17/1 239/18/1 188/19/1 187/20/1
f 239/17/1 240/18/1 189/19/1 188/20/1
f 240/17/1 241/18/1 190/19/1 189/20/1
f 241/17/1 242/18/1 191/19/1 190/20/1
f 242/17/1 243/18/1 192/19/1 191/20/1
f 243/17/1 244/18/1 193/19/1 192/20/1
f 244/17/1 245/18/1 194/19/1 193/20/1
f 245/17/1 246/18/1 195/19/1 194/20/1
f 246/17/1 247/18/1 196/19/1 195/20/1
f 247/17/1 248/18/1 197/19/1 196/20/1
f 248/17/1 249/18/1 198/19/1 197/20/1
f 249/17/1 250/18/1 199/19/1 198/20/1
f 250/21/1 251/22/1 201/23/1 199/24/1
f 252/13/1 253/14/1 208/15/1 207/16/1
f 253/17/1 254/18/1 211/19/1 208/20/1
f 254/17/1 255/18/1 212/19/1 211/20/1
f 255/17/1 256/18/1 213/19/1 212/20/1
f 256/17/1 257/18/1 214/19/1 213/20/1
f 257/17/1 258/18/1 215/19/1 214/20/1
f 258/17/1 259/18/1 216/19/1 215/20/1
f 259/17/1 260/18/1 217/19/1 216/20/1
f 260/17/1 261/18/1 218/19/1 217/20/1
f 261/17/1 262/18/1 219/19/1 218/20/1
f 262/17/1 263/18/1 220/19/1 219/20/1
f 263/17/1 264/18/1 221/19/1 220/20/1
f 264/17/1 265/18/1 223/19/1 221/20/1
f 265/17/1 266/18/1 225/19/1 223/20/1
f 266/17/1 267/18/1 227/19/1 225/20/1
f 267/17/1 268/18/1 229/19/1 227/20/1
f 268/17/1 269/18/1 231/19/1 229/20/1
f 269/17/1 270/18/1 233/19/1 231/20/1
f 270/17/1 271/18/1 235/19/1 233/20/1
f 272/17/1 273/18/1 238/19/1 237/20/1
f 273/17/1 274/18/1 239/19/1 238/20/1
f 274/17/1 275/18/1 240/19/1 239/20/1
f 275/17/1 276/18/1 241/19/1 240/20/1
f 276/17/1 277/18/1 242/19/1 241/20/1
f 277/17/1 278/18/1 243/19/1 242/20/1
f 278/17/1 279/18/1 244/19/1 243/20/1
f 279/17/1 280/18/1 245/19/1 244/20/1
f 280/17/1 281/18/1 246/19/1 245/20/1
f 281/17/1 282/18/1 247/19/1 246/20/1
f 282/17/1 283/18/1 248/19/1 247/20/1
f 283/17/1 284/18/1 249/19/1 248/20/1
f 284/17/1 285/18/1 250/19/1 249/20/1
f 285/17/1 286/18/1 251/19/1 250/20/1
f 286/5/1 287/6/1 288/7/1 251/8/1
f 287/5/1 289/6/1 290/7/1 288/8/1
f 289/5/1 291/6/1 292/7/1 290/8/1
f 291/5/1 293/6/1 294/7/1 292/8/1
f 293/5/1 295/6/1 296/7/1 294/8/1
f 295/5/1 297/6/1 298/7/1 296/8/1
f 297/5/1 299/6/1 252/7/1 298/8/1
f 299/17/1 300/18/1 253/19/1 252/20/1
f 300/17/1 301/18/1 254/19/1 253/20/1
f 301/17/1 302/18/1 255/19/1 254/20/1
f 302/17/1 303/18/1 256/19/1 255/20/1
f 303/17/1 304/18/1 257/19/1 256/20/1
f 304/17/1 305/18/1 258/19/1 257/20/1
f 305/17/1 306/18/1 259/19/1 258/20/1
f 306/17/1 307/18/1 260/19/1 259/20/1
f 307/17/1 308/18/1 261/19/1 260/20/1
f 308/17/1 309/18/1 262/19/1 261/20/1
f 309/17/1 310/18/1 263/19/1 262/20/1
f 310/17/1 311/18/1 264/19/1 263/20/1
f 311/17/1 312/18/1 265/19/1 264/20/1
f 312/17/1 313/18/1 266/19/1 265/20/1
f 313/17/1 314/18/1 267/19/1 266/20/1
f 314/17/1 315/18/1 268/19/1 267/20/1
f 315/17/1 316/18/1 269/19/1 268/20/1
f 316/17/1 317/18/1 270/19/1 269/20/1
f 317/17/1 318/18/1 271/19/1 270/20/1

